<svg width="24" height="24" viewBox="0 0 24 24" fill="none" xmlns="http://www.w3.org/2000/svg">
<path fill-rule="evenodd" clip-rule="evenodd" d="M16.6291 23.0632C15.1826 23.6877 13.6371 24 11.9925 24C10.3579 24 8.81733 23.6877 7.3709 23.0632C5.92446 22.4387 4.64891 21.5713 3.54426 20.461C2.43962 19.3507 1.57275 18.0719 0.943651 16.6245C0.31455 15.1772 0 13.6357 0 12C0 10.3643 0.31455 8.82281 0.943651 7.37548C1.57275 5.92814 2.43714 4.64933 3.53683 3.53903C4.63653 2.42876 5.90961 1.56135 7.35604 0.93681C8.80248 0.312269 10.343 0 11.9777 0C13.6223 0 15.1678 0.312269 16.6142 0.93681C18.0607 1.56135 19.3387 2.42876 20.4483 3.53903C21.5579 4.64933 22.4272 5.92814 23.0563 7.37548C23.6854 8.82281 24 10.3643 24 12C24 13.6357 23.6854 15.1772 23.0563 16.6245C22.4272 18.0719 21.5604 19.3507 20.4557 20.461C19.3511 21.5713 18.0755 22.4387 16.6291 23.0632ZM7.93561 18.1933C8.06439 18.337 8.23775 18.4089 8.45571 18.4089C8.62413 18.4089 8.78265 18.3494 8.93125 18.2305C9.07987 18.1115 9.3127 17.8984 9.62972 17.5911L11.9331 15.3606C11.9727 15.321 12.0124 15.321 12.052 15.3606L14.3554 17.5911C14.6823 17.8984 14.9176 18.1115 15.0613 18.2305C15.2049 18.3494 15.361 18.4089 15.5294 18.4089C15.7473 18.4089 15.9207 18.337 16.0495 18.1933C16.1783 18.0496 16.2427 17.8439 16.2427 17.5762V7.44983C16.2427 6.84512 16.0892 6.38663 15.782 6.07436C15.4749 5.76209 15.0192 5.60596 14.4148 5.60596H9.57025C8.96592 5.60596 8.5102 5.76209 8.2031 6.07436C7.89597 6.38663 7.74241 6.84512 7.74241 7.44983V17.5762C7.74241 17.8439 7.80681 18.0496 7.93561 18.1933Z" fill="#8E8E8E"/>
</svg>
