<svg width="12" height="19" viewBox="0 0 12 19" fill="none" xmlns="http://www.w3.org/2000/svg">
<path d="M1.01392 18.5C1.25161 18.5 1.4726 18.4224 1.67688 18.2673C1.88115 18.1122 2.21356 17.8232 2.67409 17.4001L5.91644 14.4177C5.97586 14.3613 6.03157 14.3613 6.08356 14.4177L9.32591 17.4001C9.78645 17.8232 10.1207 18.1122 10.3287 18.2673C10.5367 18.4224 10.7595 18.5 10.9972 18.5C11.3166 18.5 11.5636 18.4048 11.7382 18.2145C11.9127 18.0241 12 17.7491 12 17.3895V2.96417C12 2.1463 11.7864 1.53114 11.3593 1.1187C10.9322 0.706232 10.2916 0.5 9.43734 0.5H2.56266C1.70844 0.5 1.06778 0.706232 0.640666 1.1187C0.213555 1.53114 0 2.1463 0 2.96417V17.3895C0 17.7491 0.0891309 18.0241 0.267393 18.2145C0.44567 18.4048 0.694511 18.5 1.01392 18.5ZM1.8273 15.9089C1.76786 15.9583 1.71029 15.9777 1.65458 15.9671C1.59887 15.9565 1.57102 15.9089 1.57102 15.8243V2.98531C1.57102 2.65394 1.66201 2.40541 1.844 2.23973C2.02599 2.07404 2.29154 1.99119 2.64066 1.99119H9.35934C9.70846 1.99119 9.97401 2.07404 10.156 2.23973C10.338 2.40541 10.429 2.65394 10.429 2.98531V15.8243C10.429 15.9089 10.4011 15.9565 10.3454 15.9671C10.2897 15.9777 10.2359 15.9583 10.1839 15.9089L6.50697 12.5987C6.35098 12.4577 6.18199 12.3872 6 12.3872C5.81801 12.3872 5.64902 12.4577 5.49303 12.5987L1.8273 15.9089Z" fill="#8E8E8E"/>
</svg>
