<svg width="24" height="24" viewBox="0 0 24 24" fill="none" xmlns="http://www.w3.org/2000/svg">
<path fill-rule="evenodd" clip-rule="evenodd" d="M16.6291 23.0632C15.1827 23.6877 13.6371 24 11.9926 24C10.3579 24 8.81734 23.6877 7.3709 23.0632C5.92446 22.4387 4.64891 21.5713 3.54426 20.461C2.43962 19.3507 1.57275 18.0719 0.943651 16.6245C0.31455 15.1772 0 13.6357 0 12C0 10.3643 0.31455 8.82281 0.943651 7.37545C1.57275 5.92812 2.43715 4.64931 3.53683 3.53904C4.63654 2.42874 5.90961 1.56133 7.35605 0.936812C8.80249 0.312271 10.343 0 11.9777 0C13.6223 0 15.1678 0.312271 16.6142 0.936812C18.0607 1.56133 19.3387 2.42874 20.4483 3.53904C21.5579 4.64931 22.4272 5.92812 23.0564 7.37545C23.6855 8.82281 24 10.3643 24 12C24 13.6357 23.6855 15.1772 23.0564 16.6245C22.4272 18.0719 21.5604 19.3507 20.4557 20.461C19.3511 21.5713 18.0755 22.4387 16.6291 23.0632ZM5.32754 12.7063C5.52074 12.8798 5.77089 12.9665 6.078 12.9665H17.9517C18.2588 12.9665 18.509 12.8798 18.7021 12.7063C18.8953 12.5328 18.9919 12.2973 18.9919 12C18.9919 11.7026 18.8953 11.4671 18.7021 11.2937C18.509 11.1202 18.2588 11.0334 17.9517 11.0334H6.078C5.77089 11.0334 5.52074 11.1202 5.32754 11.2937C5.13436 11.4671 5.03777 11.7026 5.03777 12C5.03777 12.2973 5.13436 12.5328 5.32754 12.7063ZM5.32754 16.7137C5.52074 16.8921 5.77089 16.9814 6.078 16.9814H17.9517C18.2588 16.9814 18.509 16.8921 18.7021 16.7137C18.8953 16.5353 18.9919 16.2974 18.9919 16C18.9919 15.7224 18.8953 15.4944 18.7021 15.316C18.509 15.1375 18.2588 15.0483 17.9517 15.0483H6.078C5.77089 15.0483 5.52074 15.1375 5.32754 15.316C5.13436 15.4944 5.03777 15.7224 5.03777 16C5.03777 16.2974 5.13436 16.5353 5.32754 16.7137ZM5.32754 8.6914C5.52074 8.86488 5.77089 8.95162 6.078 8.95162H17.9517C18.2588 8.95162 18.509 8.86488 18.7021 8.6914C18.8953 8.51791 18.9919 8.28743 18.9919 7.99995C18.9919 7.70256 18.8953 7.46465 18.7021 7.28621C18.509 7.10777 18.2588 7.01855 17.9517 7.01855H6.078C5.77089 7.01855 5.52074 7.10777 5.32754 7.28621C5.13436 7.46465 5.03777 7.70256 5.03777 7.99995C5.03777 8.28743 5.13436 8.51791 5.32754 8.6914Z" fill="#8E8E8E"/>
</svg>
