<svg width="24" height="24" viewBox="0 0 24 24" fill="none" xmlns="http://www.w3.org/2000/svg">
<path fill-rule="evenodd" clip-rule="evenodd" d="M16.6291 23.0632C15.1827 23.6877 13.6371 24 11.9926 24C10.3579 24 8.81734 23.6877 7.3709 23.0632C5.92446 22.4387 4.64891 21.5713 3.54426 20.461C2.43962 19.3507 1.57275 18.0719 0.943651 16.6246C0.31455 15.1772 0 13.6357 0 12C0 10.3643 0.31455 8.82281 0.943651 7.37548C1.57275 5.92815 2.43715 4.64933 3.53683 3.53903C4.63654 2.42876 5.90961 1.56135 7.35605 0.93681C8.80249 0.312269 10.343 0 11.9777 0C13.6223 0 15.1678 0.312269 16.6142 0.93681C18.0607 1.56135 19.3387 2.42876 20.4483 3.53903C21.5579 4.64933 22.4272 5.92815 23.0564 7.37548C23.6855 8.82281 24 10.3643 24 12C24 13.6357 23.6855 15.1772 23.0564 16.6246C22.4272 18.0719 21.5604 19.3507 20.4557 20.461C19.3511 21.5713 18.0755 22.4387 16.6291 23.0632ZM5.09721 10.9891V15.3757C5.09721 16.6842 5.75603 17.3385 7.07367 17.3385H16.956C18.2737 17.3385 18.9325 16.6842 18.9325 15.3757V10.9891C18.0211 11.3261 17.1344 11.5814 16.2724 11.7549C15.4105 11.9284 14.5436 12.0448 13.6718 12.1043V12.595C13.6718 13.0609 13.444 13.2939 12.9882 13.2939H11.0415C10.5857 13.2939 10.3579 13.0609 10.3579 12.595V12.1043C9.48607 12.0448 8.61672 11.9284 7.74984 11.7549C6.88296 11.5814 5.99875 11.3261 5.09721 10.9891ZM5.09721 9.48722V9.84408C6.23653 10.3199 7.37336 10.652 8.50772 10.8404C9.64211 11.0287 10.8087 11.1229 12.0074 11.1229C13.2161 11.1229 14.3876 11.0287 15.522 10.8404C16.6563 10.652 17.7932 10.3199 18.9325 9.84408V9.48722C18.9325 8.83294 18.7666 8.34223 18.4347 8.0151C18.1028 7.68797 17.6099 7.5244 16.956 7.5244H15.7672V7.01881C15.7672 6.52315 15.6186 6.13405 15.3213 5.85153C15.0241 5.569 14.6229 5.42773 14.1177 5.42773H9.89722C9.40186 5.42773 9.0031 5.569 8.70092 5.85153C8.39875 6.13405 8.24766 6.52315 8.24766 7.01881V7.5244H7.07367C6.41981 7.5244 5.92693 7.68797 5.59503 8.0151C5.26315 8.34223 5.09721 8.83294 5.09721 9.48722ZM14.504 7.5244H9.5257V7.09315C9.5257 6.78585 9.68422 6.6322 10.0012 6.6322H14.0136C14.3406 6.6322 14.504 6.78585 14.504 7.09315V7.5244Z" fill="#8E8E8E"/>
</svg>
