<svg width="24" height="24" viewBox="0 0 24 24" fill="none" xmlns="http://www.w3.org/2000/svg">
<path d="M3.43438 22.4845H20.5521C21.7059 22.4845 22.569 22.2028 23.1414 21.6394C23.7138 21.0761 24 20.231 24 19.1042V8.86871C24 7.74195 23.7138 6.89689 23.1414 6.33352C22.569 5.77013 21.7059 5.48844 20.5521 5.48844H3.43438C2.28958 5.48844 1.43099 5.77013 0.85859 6.33352C0.286197 6.89689 0 7.74195 0 8.86871V19.1042C0 20.231 0.286197 21.0761 0.85859 21.6394C1.43099 22.2028 2.28958 22.4845 3.43438 22.4845ZM3.4614 20.5375C2.97465 20.5375 2.60057 20.409 2.33916 20.1521C2.07775 19.8952 1.94705 19.5099 1.94705 18.996V8.9769C1.94705 8.4631 2.07775 8.07775 2.33916 7.82085C2.60057 7.56394 2.97465 7.43549 3.4614 7.43549H20.5251C21.0118 7.43549 21.3859 7.56394 21.6473 7.82085C21.9088 8.07775 22.0395 8.4631 22.0395 8.9769V18.996C22.0395 19.5099 21.9088 19.8952 21.6473 20.1521C21.3859 20.409 21.0118 20.5375 20.5251 20.5375H3.4614ZM0.973509 11.8434C2.59605 12.4113 4.34028 12.8394 6.20619 13.1279C8.07212 13.4163 10.0011 13.5606 11.9933 13.5606C13.9944 13.5606 15.9256 13.4163 17.787 13.1279C19.6485 12.8394 21.3949 12.4113 23.0265 11.8434V9.78817C21.413 10.4101 19.6778 10.8811 17.8209 11.2011C15.964 11.5211 14.0214 11.6811 11.9933 11.6811C9.9741 11.6811 8.03382 11.5211 6.17241 11.2011C4.311 10.8811 2.57803 10.4101 0.973509 9.78817V11.8434ZM10.3301 15.5211H13.6699C14.4811 15.5211 14.8868 15.12 14.8868 14.3177V12.587H9.11325V14.3177C9.11325 15.12 9.51888 15.5211 10.3301 15.5211ZM5.61127 6.98928H7.54479V4.71773C7.54479 4.43829 7.63268 4.21519 7.80847 4.04843C7.98423 3.88168 8.21183 3.7983 8.49128 3.7983H15.5087C15.7972 3.7983 16.0293 3.88168 16.2051 4.04843C16.3809 4.21519 16.4687 4.43829 16.4687 4.71773V6.98928H18.3888V4.58252C18.3888 3.78026 18.1454 3.14928 17.6586 2.68957C17.1718 2.22986 16.5048 2 15.6575 2H8.35606C7.50874 2 6.83945 2.22986 6.34816 2.68957C5.8569 3.14928 5.61127 3.78026 5.61127 4.58252V6.98928Z" fill="#2C2C2C"/>
</svg>
