<svg width="24" height="24" viewBox="0 0 24 24" fill="none" xmlns="http://www.w3.org/2000/svg">
<path fill-rule="evenodd" clip-rule="evenodd" d="M16.6291 23.0632C15.1827 23.6877 13.6371 24 11.9926 24C10.3579 24 8.81734 23.6877 7.3709 23.0632C5.92446 22.4387 4.64891 21.5713 3.54426 20.461C2.43962 19.3507 1.57275 18.0719 0.943651 16.6245C0.31455 15.1772 0 13.6357 0 12C0 10.3643 0.31455 8.82281 0.943651 7.37545C1.57275 5.92812 2.43715 4.64931 3.53683 3.53904C4.63654 2.42874 5.90961 1.56133 7.35605 0.936812C8.80249 0.312271 10.343 0 11.9777 0C13.6223 0 15.1678 0.312271 16.6142 0.936812C18.0607 1.56133 19.3387 2.42874 20.4483 3.53904C21.5579 4.64931 22.4272 5.92812 23.0564 7.37545C23.6855 8.82281 24 10.3643 24 12C24 13.6357 23.6855 15.1772 23.0564 16.6245C22.4272 18.0719 21.5604 19.3507 20.4557 20.461C19.3511 21.5713 18.0755 22.4387 16.6291 23.0632ZM10.0533 17.5835C10.2464 17.6876 10.457 17.7397 10.6848 17.7397C11.1604 17.7397 11.5319 17.5216 11.7994 17.0854L17.1046 8.69876C17.1839 8.55999 17.2607 8.41377 17.335 8.2601C17.4093 8.10645 17.4464 7.95528 17.4464 7.80659C17.4464 7.48937 17.33 7.24153 17.0972 7.0631C16.8644 6.88464 16.6043 6.79541 16.317 6.79541C15.9306 6.79541 15.6136 6.99864 15.3659 7.40509L10.6254 15.0928L8.48545 12.2229C8.32692 12.0048 8.16841 11.8561 8.0099 11.7768C7.85138 11.6975 7.678 11.6579 7.48978 11.6579C7.18265 11.6579 6.92755 11.7669 6.72446 11.985C6.52136 12.2031 6.41981 12.4609 6.41981 12.7582C6.41981 13.0656 6.52384 13.3531 6.73189 13.6207L9.49597 17.0854C9.6743 17.3134 9.86006 17.4795 10.0533 17.5835Z" fill="#8E8E8E"/>
</svg>
