<svg width="24" height="24" viewBox="0 0 24 24" fill="none" xmlns="http://www.w3.org/2000/svg">
<path fill-rule="evenodd" clip-rule="evenodd" d="M16.6291 23.0632C15.1827 23.6877 13.6371 24 11.9926 24C10.3579 24 8.81734 23.6877 7.3709 23.0632C5.92446 22.4387 4.64891 21.5713 3.54426 20.461C2.43962 19.3507 1.57275 18.0719 0.943651 16.6245C0.31455 15.1772 0 13.6357 0 12C0 10.3643 0.31455 8.82281 0.943651 7.37548C1.57275 5.92814 2.43715 4.64933 3.53683 3.53903C4.63654 2.42876 5.90961 1.56135 7.35605 0.93681C8.80249 0.312269 10.343 0 11.9777 0C13.6223 0 15.1678 0.312269 16.6142 0.93681C18.0607 1.56135 19.3387 2.42876 20.4483 3.53903C21.5579 4.64933 22.4272 5.92814 23.0564 7.37548C23.6855 8.82281 24 10.3643 24 12C24 13.6357 23.6855 15.1772 23.0564 16.6245C22.4272 18.0719 21.5604 19.3507 20.4557 20.461C19.3511 21.5713 18.0755 22.4387 16.6291 23.0632ZM5.08236 9.11512C4.70589 9.29356 4.51765 9.55626 4.51765 9.90323C4.51765 10.2502 4.70589 10.5079 5.08236 10.6764L7.22229 11.643L10.8037 10.0073C10.8037 9.99739 10.8012 9.98004 10.7963 9.95527C10.7913 9.93048 10.7889 9.91313 10.7889 9.90323C10.7889 9.70495 10.9201 9.54882 11.1827 9.43482C11.4452 9.3208 11.7201 9.26379 12.0074 9.26379C12.3145 9.26379 12.5944 9.3208 12.8471 9.43482C13.0997 9.54882 13.226 9.70495 13.226 9.90323C13.226 10.1015 13.0997 10.2626 12.8471 10.3865C12.5944 10.5104 12.3145 10.5724 12.0074 10.5724C11.8192 10.5724 11.6508 10.5525 11.5022 10.5129L8.11393 12.0593L10.4916 13.1597C10.769 13.2886 11.0291 13.3828 11.2718 13.4422C11.5146 13.5017 11.7548 13.5315 11.9926 13.5315C12.2303 13.5315 12.4681 13.5017 12.7059 13.4422C12.9437 13.3828 13.2062 13.2886 13.4935 13.1597L18.8879 10.6764C19.2644 10.5079 19.4526 10.2502 19.4526 9.90323C19.4526 9.55626 19.2644 9.29356 18.8879 9.11512L13.4935 6.64671C12.909 6.38897 12.4087 6.26506 11.9926 6.27496C11.5666 6.26506 11.0662 6.38897 10.4916 6.64671L5.08236 9.11512ZM8.0842 12.9664V16.3716C7.77709 16.1932 7.4997 15.9751 7.25202 15.7174V12.5798L6.4941 12.2378V14.0817C6.4941 14.6269 6.74674 15.1721 7.25202 15.7174V16.788C6.9647 16.9069 6.82103 17.1399 6.82103 17.4869V18.6467C6.82103 18.8747 6.89039 19.0581 7.02909 19.1969C7.16779 19.3357 7.35107 19.4051 7.57895 19.4051H7.72756C7.95542 19.4051 8.13869 19.3357 8.27739 19.1969C8.41609 19.0581 8.48545 18.8747 8.48545 18.6467V17.4869C8.48545 17.1498 8.3517 16.9168 8.0842 16.788V16.3716C8.55975 16.6591 9.12694 16.8797 9.78577 17.0333C10.4446 17.187 11.1802 17.2638 11.9926 17.2638C13.0923 17.2638 14.0533 17.1225 14.8755 16.84C15.6978 16.5575 16.3368 16.1758 16.7926 15.695C17.2483 15.2142 17.4762 14.6764 17.4762 14.0817V12.2378L13.8353 13.9181C13.1715 14.2254 12.5573 14.3741 11.9926 14.3642C11.4179 14.3741 10.7988 14.2254 10.135 13.9181L8.0842 12.9664Z" fill="#8E8E8E"/>
</svg>
