<svg width="24" height="24" viewBox="0 0 24 24" fill="none" xmlns="http://www.w3.org/2000/svg">
<path d="M12.0057 24C18.5861 24 24 18.5861 24 12.0057C24 5.41387 18.5861 0 11.9943 0C5.40255 0 0 5.41387 0 12.0057C0 18.5861 5.41388 24 12.0057 24ZM7.63379 16.9891L8.85701 13.3082L5.70835 11.0429C5.06277 10.5673 5.21 9.55923 6.17272 9.57055L10.0576 9.61586L11.2355 5.91222C11.5186 5.02879 12.4587 5.02879 12.7419 5.91222L13.9311 9.61586L17.8159 9.57055C18.8126 9.55923 18.9146 10.5786 18.2803 11.0429L15.1317 13.3082L16.3549 16.9891C16.6607 17.9179 15.8565 18.4162 15.1317 17.8839L11.9943 15.5847L8.86833 17.8839C8.13214 18.4276 7.32798 17.8952 7.63379 16.9891Z" fill="#001760"/>
</svg>
