<svg width="38" height="33" viewBox="0 0 38 33" fill="none" xmlns="http://www.w3.org/2000/svg">
<path d="M0 0H38V25C38 29.4183 34.4183 33 30 33H8C3.58172 33 0 29.4183 0 25V0Z" fill="white"/>
<path d="M14.1672 16.322C14.1672 15.7355 13.9666 15.2436 13.5653 14.8461C13.164 14.4487 12.6662 14.25 12.072 14.25C11.5087 14.25 11.0225 14.4506 10.6135 14.8519C10.2045 15.2532 10 15.7432 10 16.322C10 16.7002 10.0945 17.0455 10.2836 17.358C10.4727 17.6706 10.7235 17.9195 11.036 18.1047C11.3486 18.2899 11.6939 18.3825 12.072 18.3825C12.4579 18.3825 12.809 18.2899 13.1254 18.1047C13.4418 17.9195 13.6945 17.6706 13.8836 17.358C14.0727 17.0455 14.1672 16.7002 14.1672 16.322ZM21.0662 16.322C21.0662 15.7355 20.8675 15.2436 20.4701 14.8461C20.0727 14.4487 19.5807 14.25 18.9942 14.25C18.4309 14.25 17.9466 14.4506 17.5415 14.8519C17.1363 15.2532 16.9338 15.7432 16.9338 16.322C16.9338 16.7002 17.0264 17.0455 17.2116 17.358C17.3968 17.6706 17.6457 17.9195 17.9582 18.1047C18.2707 18.2899 18.6161 18.3825 18.9942 18.3825C19.3723 18.3825 19.7177 18.2899 20.0302 18.1047C20.3428 17.9195 20.5936 17.6706 20.7826 17.358C20.9717 17.0455 21.0662 16.7002 21.0662 16.322ZM28 16.322C28 15.7355 27.8013 15.2436 27.4038 14.8461C27.0064 14.4487 26.5145 14.25 25.928 14.25C25.3492 14.25 24.8553 14.4506 24.4463 14.8519C24.0373 15.2532 23.8328 15.7432 23.8328 16.322C23.8328 16.7002 23.9273 17.0455 24.1164 17.358C24.3055 17.6706 24.5582 17.9195 24.8746 18.1047C25.191 18.2899 25.5421 18.3825 25.928 18.3825C26.2984 18.3825 26.6418 18.2899 26.9582 18.1047C27.2746 17.9195 27.5273 17.6706 27.7164 17.358C27.9055 17.0455 28 16.7002 28 16.322Z" fill="#8E8E8E"/>
</svg>
