<svg width="58" height="69" viewBox="0 0 58 69" fill="none" xmlns="http://www.w3.org/2000/svg">
<rect x="0.892578" y="0.5" width="56" height="68" rx="7.5" fill="white"/>
<path d="M28.8969 16.7559C29.1033 16.7559 29.2725 16.8276 29.4044 16.971L34.6861 22.2871C34.8238 22.4247 34.8926 22.591 34.8926 22.786C34.8926 22.9925 34.8252 23.1631 34.6904 23.2978C34.5556 23.4326 34.3879 23.5 34.1872 23.5C33.9979 23.5 33.8288 23.4312 33.6797 23.2935L28.4926 18.0892H29.2926L24.1055 23.2935C23.9621 23.4312 23.7958 23.5 23.6066 23.5C23.4001 23.5 23.2295 23.4326 23.0947 23.2978C22.96 23.1631 22.8926 22.9925 22.8926 22.786C22.8926 22.591 22.9614 22.4247 23.099 22.2871L28.3893 16.971C28.5327 16.8276 28.7019 16.7559 28.8969 16.7559Z" fill="#8E8E8E"/>
<path d="M24.1348 50.2656C26.4082 50.2656 28.0801 48.6328 28.0801 46.3828V46.3672C28.0801 44.2031 26.502 42.5938 24.3848 42.5938C22.8613 42.5938 21.7988 43.4141 21.3848 44.3359H21.2363C21.2363 44.25 21.2363 44.1562 21.2441 44.0703C21.3301 41.7188 22.166 39.7188 24.2129 39.7188C25.3535 39.7188 26.1426 40.3047 26.4863 41.25L26.5176 41.3359H27.9316L27.9082 41.2344C27.5254 39.5703 26.1191 38.4609 24.2285 38.4609C21.4941 38.4609 19.8926 40.7109 19.8926 44.5547V44.5703C19.8926 48.8125 22.0723 50.2656 24.1348 50.2656ZM21.5723 46.3672V46.3594C21.5723 44.8906 22.6816 43.8203 24.1426 43.8203C25.6035 43.8203 26.666 44.8984 26.666 46.3984V46.4141C26.666 47.875 25.5332 49.0234 24.1191 49.0234C22.6895 49.0234 21.5723 47.8516 21.5723 46.3672ZM30.3379 50H37.6348V48.7344H32.291V48.6094L34.8535 45.9609C36.8926 43.8594 37.4473 42.9219 37.4473 41.6328V41.6172C37.4473 39.7969 35.9395 38.4609 33.9707 38.4609C31.8145 38.4609 30.2676 39.8984 30.2598 41.8984L30.2754 41.9062L31.6191 41.9141L31.627 41.8984C31.627 40.5703 32.5254 39.6875 33.877 39.6875C35.2051 39.6875 36.0098 40.5781 36.0098 41.7656V41.7812C36.0098 42.7656 35.5879 43.3516 34.1504 44.9062L30.3379 49.0312V50Z" fill="#4B4B4B"/>
<rect x="0.892578" y="0.5" width="56" height="68" rx="7.5" stroke="#E1E1E1"/>
</svg>
