<svg width="24" height="24" viewBox="0 0 24 24" fill="none" xmlns="http://www.w3.org/2000/svg">
<path fill-rule="evenodd" clip-rule="evenodd" d="M16.6291 23.0632C15.1827 23.6877 13.6371 24 11.9926 24C10.3579 24 8.81734 23.6877 7.3709 23.0632C5.92446 22.4387 4.64891 21.5713 3.54426 20.461C2.43962 19.3507 1.57275 18.0719 0.943651 16.6245C0.31455 15.1772 0 13.6357 0 12C0 10.3643 0.31455 8.82281 0.943651 7.37545C1.57275 5.92812 2.43715 4.64931 3.53683 3.53904C4.63654 2.42874 5.90961 1.56133 7.35605 0.936812C8.80249 0.312271 10.343 0 11.9777 0C13.6223 0 15.1678 0.312271 16.6142 0.936812C18.0607 1.56133 19.3387 2.42874 20.4483 3.53904C21.5579 4.64931 22.4272 5.92812 23.0564 7.37545C23.6855 8.82281 24 10.3643 24 12C24 13.6357 23.6855 15.1772 23.0564 16.6245C22.4272 18.0719 21.5604 19.3507 20.4557 20.461C19.3511 21.5713 18.0755 22.4387 16.6291 23.0632ZM8.63405 11.9628C8.426 12.4932 8.31702 13.14 8.30712 13.9034C8.2873 15.093 8.72073 16.0868 9.60741 16.8848C10.4941 17.6828 11.6904 18.0868 13.1963 18.0967L14.0879 18.1116C14.504 18.1116 14.8631 18.0992 15.1653 18.0744C15.4675 18.0496 15.7077 18.0174 15.8861 17.9777C16.1436 17.9083 16.3789 17.7943 16.5919 17.6357C16.8049 17.4771 16.9114 17.2392 16.9114 16.922C16.9114 16.8129 16.8966 16.7064 16.8669 16.6023C16.8371 16.4982 16.8074 16.4164 16.7777 16.3569C16.7282 16.2578 16.7381 16.1933 16.8074 16.1636C16.9957 16.0942 17.1666 15.9678 17.3201 15.7844C17.4737 15.601 17.5505 15.3804 17.5505 15.1227C17.5505 14.8253 17.4663 14.5824 17.2978 14.3941C17.2186 14.285 17.2334 14.1958 17.3424 14.1264C17.6792 13.9182 17.8477 13.5961 17.8477 13.1599C17.8477 13.0211 17.8254 12.8749 17.7808 12.7212C17.7362 12.5676 17.6743 12.4511 17.595 12.3718C17.5059 12.3024 17.5158 12.228 17.6248 12.1487C17.8328 11.9207 17.9368 11.6431 17.9368 11.316C17.9368 10.9889 17.8279 10.7138 17.6099 10.4907C17.3919 10.2677 17.1294 10.1562 16.8223 10.1562H14.5337C14.2266 10.1562 13.9888 10.0868 13.8204 9.94798C13.652 9.80919 13.5678 9.61588 13.5678 9.36805C13.5678 9.08057 13.6569 8.72618 13.8353 8.30486C14.0136 7.88355 14.1919 7.44984 14.3703 7.00373C14.5486 6.55765 14.6377 6.14625 14.6377 5.76954C14.6377 5.47216 14.5511 5.23919 14.3777 5.07066C14.2043 4.90214 13.9938 4.81787 13.7461 4.81787C13.5084 4.81787 13.3226 4.88974 13.1888 5.03348C13.0551 5.17722 12.9288 5.37301 12.8099 5.62084C12.3145 6.5626 11.7721 7.4201 11.1826 8.19334C10.5932 8.96658 10.0557 9.68529 9.57025 10.3495C9.15417 10.8947 8.8421 11.4325 8.63405 11.9628ZM5.82539 11.435C5.33003 12.119 5.08235 12.9567 5.08235 13.948C5.08235 14.9195 5.34737 15.7571 5.8774 16.461C6.40743 17.1648 7.07863 17.5167 7.89102 17.5167H8.97583C8.39132 17.0806 7.97274 16.5527 7.7201 15.9331C7.46747 15.3135 7.34611 14.632 7.35604 13.8885C7.36594 13.0855 7.50215 12.3941 7.76468 11.8141C8.02723 11.2342 8.29721 10.7658 8.57461 10.409H7.66808C6.93497 10.409 6.32074 10.751 5.82539 11.435Z" fill="#8E8E8E"/>
</svg>
