<svg width="24" height="24" viewBox="0 0 24 24" fill="none" xmlns="http://www.w3.org/2000/svg">
<path fill-rule="evenodd" clip-rule="evenodd" d="M16.6291 23.0632C15.1827 23.6877 13.6371 24 11.9926 24C10.3579 24 8.81734 23.6877 7.3709 23.0632C5.92446 22.4387 4.64891 21.5713 3.54426 20.461C2.43962 19.3507 1.57275 18.0719 0.943651 16.6245C0.31455 15.1772 0 13.6357 0 12C0 10.3643 0.31455 8.82281 0.943651 7.37548C1.57275 5.92814 2.43715 4.64933 3.53683 3.53903C4.63654 2.42876 5.90961 1.56135 7.35605 0.93681C8.80249 0.312269 10.343 0 11.9777 0C13.6223 0 15.1678 0.312269 16.6142 0.93681C18.0607 1.56135 19.3387 2.42876 20.4483 3.53903C21.5579 4.64933 22.4272 5.92814 23.0564 7.37548C23.6855 8.82281 24 10.3643 24 12C24 13.6357 23.6855 15.1772 23.0564 16.6245C22.4272 18.0719 21.5604 19.3507 20.4557 20.461C19.3511 21.5713 18.0755 22.4387 16.6291 23.0632ZM7.87616 18.7954C8.10403 19.0135 8.42602 19.1225 8.84212 19.1225H15.143C15.5492 19.1225 15.8712 19.0135 16.109 18.7954C16.3468 18.5773 16.4706 18.2601 16.4805 17.8437L16.8669 8.46081H17.7734C17.9319 8.46081 18.0632 8.40628 18.1672 8.29724C18.2712 8.1882 18.3282 8.05933 18.3381 7.91063C18.348 7.75201 18.296 7.6157 18.182 7.5017C18.0681 7.3877 17.9319 7.33071 17.7734 7.33071H14.9647V6.39389C14.9647 5.86849 14.8037 5.45462 14.4817 5.15227C14.1597 4.84991 13.7263 4.69873 13.1814 4.69873H10.774C10.2291 4.69873 9.79816 4.84991 9.48113 5.15227C9.1641 5.45462 9.00559 5.86849 9.00559 6.39389V7.33071H6.19692C6.0483 7.33071 5.9195 7.3877 5.81052 7.5017C5.70155 7.6157 5.64706 7.75201 5.64706 7.91063C5.64706 8.05933 5.70155 8.1882 5.81052 8.29724C5.9195 8.40628 6.0483 8.46081 6.19692 8.46081H7.11827L7.51952 17.8437C7.52942 18.2601 7.6483 18.5773 7.87616 18.7954ZM12.4681 16.8177C12.4681 17.1052 12.3046 17.2489 11.9777 17.2489C11.6706 17.2489 11.517 17.1052 11.517 16.8177V9.87345C11.517 9.56614 11.6706 9.41248 11.9777 9.41248C12.3046 9.41248 12.4681 9.56614 12.4681 9.87345V16.8177ZM10.3579 16.8177C10.3579 17.1052 10.2093 17.2489 9.91208 17.2489C9.59506 17.2489 9.43654 17.1052 9.43654 16.8177L9.24334 9.87345C9.24334 9.56614 9.40186 9.41248 9.71888 9.41248C10.0161 9.41248 10.1647 9.56118 10.1647 9.85859L10.3579 16.8177ZM14.5337 16.8177C14.5337 17.1052 14.3752 17.2489 14.0582 17.2489C13.7511 17.2489 13.5975 17.1052 13.5975 16.8177L13.7907 9.85859C13.7907 9.56118 13.9492 9.41248 14.2663 9.41248C14.5635 9.41248 14.7121 9.56614 14.7121 9.87345L14.5337 16.8177ZM13.5975 7.33071H10.3728V6.46826C10.3728 6.15104 10.5362 5.99243 10.8632 5.99243H13.1071C13.4341 5.99243 13.5975 6.15104 13.5975 6.46826V7.33071Z" fill="#8E8E8E"/>
</svg>
